
<?xml version="1.0" encoding="UTF-8" standalone="no"?>

<svg id="test" width="19px" height="37px" viewBox="0 0 19 37" version="1.1" xmlns="http://www.w3.org/2000/svg" xmlns:xlink="http://www.w3.org/1999/xlink" xmlns:sketch="http://www.bohemiancoding.com/sketch/ns">
    <!-- Generator: Sketch 3.1.1 (8761) - http://www.bohemiancoding.com/sketch -->
    <title>eyedrop-white</title>
    <desc>Created with Sketch.</desc>
    <defs></defs>
    <g id="Page-1" stroke="none" stroke-width="1" fill="none" fill-rule="evenodd" sketch:type="MSPage">
        <g id="eyedrop-" sketch:type="MSLayerGroup" transform="translate(1.000000, 1.000000)">
            <path d="M3.6,12 L3.6,26.375 C3.6,28.339 4.749,30.022 6.39,30.761 L6.39,35 L10.11,35 L10.11,30.761 C11.751,30.022 12.9,28.339 12.9,26.375 L12.9,12 L3.6,12 Z" id="Fill-1" fill="#FFFFFF" sketch:type="MSShapeGroup"></path>
            <path d="M8.25,0.25 C5.543,0.25 3.35,2.426 3.35,5.111 L3.35,26.5 C3.35,28.493 4.561,30.2 6.29,30.95 L6.29,35.25 L10.21,35.25 L10.21,30.95 C11.939,30.2 13.15,28.493 13.15,26.5 L13.15,5.111 C13.15,2.426 10.957,0.25 8.25,0.25 L8.25,0.25 Z" id="Stroke-3" stroke="#221F20" stroke-width="1.5" stroke-linecap="round" stroke-linejoin="round" sketch:type="MSShapeGroup"></path>
            <path d="M-0.25,11.9165 L16.75,11.9165" id="Stroke-5" stroke="#221F20" stroke-width="1.5" stroke-linecap="round" stroke-linejoin="round" sketch:type="MSShapeGroup"></path>
        </g>
    </g>
</svg>
